<mxfile host="app.diagrams.net" modified="2024-05-16T09:26:29.178Z" agent="Mozilla/5.0 (Windows NT 10.0; Win64; x64; rv:123.0) Gecko/20100101 Firefox/123.0" etag="DWiTXayNTJYKoGD4tzLH" version="24.3.1" type="device">
  <diagram name="Page-1" id="-8aHSu4hJpzJHO6YFkom">
    <mxGraphModel dx="1886" dy="832" grid="1" gridSize="10" guides="1" tooltips="1" connect="1" arrows="1" fold="1" page="1" pageScale="1" pageWidth="850" pageHeight="1100" math="0" shadow="0">
      <root>
        <mxCell id="0" />
        <mxCell id="1" parent="0" />
        <mxCell id="Cr6zrTfK-YFoawJKshnn-1" value="&lt;h1 class=&quot;firstHeading mw-first-heading&quot; id=&quot;firstHeading&quot;&gt;&lt;span style=&quot;&quot; class=&quot;mw-page-title-main&quot;&gt;Internet&lt;/span&gt;&lt;/h1&gt;" style="ellipse;shape=cloud;whiteSpace=wrap;html=1;fillColor=#3399FF;" parent="1" vertex="1">
          <mxGeometry x="330" y="110" width="160" height="100" as="geometry" />
        </mxCell>
        <mxCell id="Cr6zrTfK-YFoawJKshnn-2" value="" style="shape=cylinder3;whiteSpace=wrap;html=1;boundedLbl=1;backgroundOutline=1;size=15;fillColor=#3399FF;" parent="1" vertex="1">
          <mxGeometry x="340" y="230" width="150" height="80" as="geometry" />
        </mxCell>
        <mxCell id="Cr6zrTfK-YFoawJKshnn-3" style="edgeStyle=orthogonalEdgeStyle;rounded=0;orthogonalLoop=1;jettySize=auto;html=1;exitX=0.5;exitY=0;exitDx=0;exitDy=0;exitPerimeter=0;entryX=0.55;entryY=0.95;entryDx=0;entryDy=0;entryPerimeter=0;endArrow=none;endFill=0;" parent="1" source="Cr6zrTfK-YFoawJKshnn-2" target="Cr6zrTfK-YFoawJKshnn-1" edge="1">
          <mxGeometry relative="1" as="geometry" />
        </mxCell>
        <mxCell id="Cr6zrTfK-YFoawJKshnn-4" value="&lt;span style=&quot;font-size:12.0pt;font-family:&lt;br/&gt;&amp;quot;Times New Roman&amp;quot;,serif;mso-fareast-font-family:Calibri;mso-fareast-theme-font:&lt;br/&gt;minor-latin;mso-bidi-theme-font:minor-bidi;mso-ansi-language:RU;mso-fareast-language:&lt;br/&gt;EN-US;mso-bidi-language:AR-SA&quot; lang=&quot;RU&quot;&gt;Серверная&lt;/span&gt;&lt;br&gt;192.168.2.0/24" style="ellipse;shape=cloud;whiteSpace=wrap;html=1;" parent="1" vertex="1">
          <mxGeometry x="180" y="200" width="150" height="100" as="geometry" />
        </mxCell>
        <mxCell id="Cr6zrTfK-YFoawJKshnn-5" value="&lt;font style=&quot;font-size: 13px;&quot;&gt;&lt;span lang=&quot;RU&quot;&gt;Соревновательный &lt;br&gt;&lt;/span&gt;&lt;/font&gt;&lt;div&gt;&lt;font style=&quot;font-size: 13px;&quot;&gt;&lt;span lang=&quot;RU&quot;&gt;зал&lt;/span&gt;&lt;/font&gt;&lt;/div&gt;&lt;div&gt;192.168.4.0/24&lt;/div&gt;" style="ellipse;shape=cloud;whiteSpace=wrap;html=1;" parent="1" vertex="1">
          <mxGeometry x="338" y="330" width="161" height="100" as="geometry" />
        </mxCell>
        <mxCell id="Cr6zrTfK-YFoawJKshnn-7" value="&lt;span style=&quot;font-size:12.0pt;font-family:&lt;br/&gt;&amp;quot;Times New Roman&amp;quot;,serif;mso-fareast-font-family:Calibri;mso-fareast-theme-font:&lt;br/&gt;minor-latin;mso-bidi-theme-font:minor-bidi;mso-ansi-language:RU;mso-fareast-language:&lt;br/&gt;EN-US;mso-bidi-language:AR-SA&quot; lang=&quot;RU&quot;&gt;Игровой зал&lt;br&gt;&lt;/span&gt;192.168.3.0/24" style="ellipse;shape=cloud;whiteSpace=wrap;html=1;" parent="1" vertex="1">
          <mxGeometry x="195" y="290" width="165" height="100" as="geometry" />
        </mxCell>
        <mxCell id="Cr6zrTfK-YFoawJKshnn-8" value="&lt;font size=&quot;1&quot;&gt;&lt;span style=&quot;font-size: 16px;&quot; lang=&quot;RU&quot;&gt;Точки доступа&lt;br&gt;&lt;/span&gt;&lt;/font&gt;192.168.6.0/24" style="ellipse;shape=cloud;whiteSpace=wrap;html=1;" parent="1" vertex="1">
          <mxGeometry x="499" y="206" width="160" height="100" as="geometry" />
        </mxCell>
        <mxCell id="Cr6zrTfK-YFoawJKshnn-9" value="&lt;font size=&quot;1&quot;&gt;&lt;span style=&quot;font-size: 14px;&quot; lang=&quot;RU&quot;&gt;Кабинет &lt;br&gt;администраторов&lt;br&gt;&lt;/span&gt;&lt;/font&gt;192.168.5.0/24" style="ellipse;shape=cloud;whiteSpace=wrap;html=1;" parent="1" vertex="1">
          <mxGeometry x="470" y="290" width="180" height="100" as="geometry" />
        </mxCell>
        <mxCell id="Cr6zrTfK-YFoawJKshnn-10" style="edgeStyle=orthogonalEdgeStyle;rounded=0;orthogonalLoop=1;jettySize=auto;html=1;exitX=0.96;exitY=0.7;exitDx=0;exitDy=0;exitPerimeter=0;entryX=0;entryY=0.5;entryDx=0;entryDy=0;entryPerimeter=0;endArrow=none;endFill=0;" parent="1" source="Cr6zrTfK-YFoawJKshnn-4" target="Cr6zrTfK-YFoawJKshnn-2" edge="1">
          <mxGeometry relative="1" as="geometry" />
        </mxCell>
        <mxCell id="Cr6zrTfK-YFoawJKshnn-11" style="rounded=0;orthogonalLoop=1;jettySize=auto;html=1;exitX=0.88;exitY=0.25;exitDx=0;exitDy=0;exitPerimeter=0;entryX=0.145;entryY=1;entryDx=0;entryDy=-4.35;entryPerimeter=0;endArrow=none;endFill=0;" parent="1" source="Cr6zrTfK-YFoawJKshnn-7" target="Cr6zrTfK-YFoawJKshnn-2" edge="1">
          <mxGeometry relative="1" as="geometry" />
        </mxCell>
        <mxCell id="Cr6zrTfK-YFoawJKshnn-12" style="rounded=0;orthogonalLoop=1;jettySize=auto;html=1;exitX=0.13;exitY=0.77;exitDx=0;exitDy=0;exitPerimeter=0;entryX=1;entryY=0;entryDx=0;entryDy=52.5;entryPerimeter=0;endArrow=none;endFill=0;" parent="1" source="Cr6zrTfK-YFoawJKshnn-8" target="Cr6zrTfK-YFoawJKshnn-2" edge="1">
          <mxGeometry relative="1" as="geometry" />
        </mxCell>
        <mxCell id="Cr6zrTfK-YFoawJKshnn-13" style="rounded=0;orthogonalLoop=1;jettySize=auto;html=1;entryX=0.42;entryY=1.013;entryDx=0;entryDy=0;entryPerimeter=0;endArrow=none;endFill=0;exitX=0.4;exitY=0.1;exitDx=0;exitDy=0;exitPerimeter=0;" parent="1" source="Cr6zrTfK-YFoawJKshnn-5" target="Cr6zrTfK-YFoawJKshnn-2" edge="1">
          <mxGeometry relative="1" as="geometry" />
        </mxCell>
        <mxCell id="Cr6zrTfK-YFoawJKshnn-14" style="rounded=0;orthogonalLoop=1;jettySize=auto;html=1;exitX=0.07;exitY=0.4;exitDx=0;exitDy=0;exitPerimeter=0;entryX=0.855;entryY=1;entryDx=0;entryDy=-4.35;entryPerimeter=0;endArrow=none;endFill=0;" parent="1" source="Cr6zrTfK-YFoawJKshnn-9" target="Cr6zrTfK-YFoawJKshnn-2" edge="1">
          <mxGeometry relative="1" as="geometry" />
        </mxCell>
      </root>
    </mxGraphModel>
  </diagram>
</mxfile>
